<?xml version="1.0" encoding="utf-8"?>
<!-- Generator: Adobe Illustrator 19.2.0, SVG Export Plug-In . SVG Version: 6.00 Build 0)  -->
<svg version="1.1" id="Capa_1" xmlns="http://www.w3.org/2000/svg" xmlns:xlink="http://www.w3.org/1999/xlink" x="0px" y="0px"
	 viewBox="0 0 32.6 32.6" style="enable-background:new 0 0 32.6 32.6;" xml:space="preserve">
<g>
	<path d="M0.5,15.8h31.6c0.3,0,0.5,0.2,0.5,0.5s-0.2,0.5-0.5,0.5H0.5c-0.3,0-0.5-0.2-0.5-0.5S0.2,15.8,0.5,15.8z"/>
	<path d="M13,3.3c0.1,0,0.3,0,0.4,0.1c0.2,0.2,0.2,0.5,0,0.7L1.2,16.3l12.2,12.2c0.2,0.2,0.2,0.5,0,0.7s-0.5,0.2-0.7,0L0.1,16.7
		C0.1,16.6,0,16.5,0,16.3s0.1-0.3,0.1-0.4L12.7,3.4C12.8,3.3,12.9,3.3,13,3.3z"/>
</g>
</svg>
